<svg width="71" height="28" viewBox="0 0 71 28" fill="none" xmlns="http://www.w3.org/2000/svg">
<path d="M13.344 7.792C12.704 7.808 12.296 8.072 12.12 8.584L7.776 22H6.312L1.8 8.368C1.752 8.176 1.648 8.04 1.488 7.96C1.328 7.864 1.064 7.808 0.696 7.792V6.952C1.768 7.016 2.536 7.048 3 7.048C3.48 7.048 4.32 7.016 5.52 6.952V7.792C4.912 7.824 4.48 7.88 4.224 7.96C3.984 8.04 3.864 8.224 3.864 8.512C3.864 8.64 3.904 8.824 3.984 9.064L7.368 19.264H7.44L10.632 9.232C10.696 9.04 10.728 8.856 10.728 8.68C10.728 8.36 10.592 8.144 10.32 8.032C10.064 7.904 9.664 7.824 9.12 7.792V6.952C10.224 7.016 10.928 7.048 11.232 7.048C11.552 7.048 12.256 7.016 13.344 6.952V7.792Z" fill="#1E3A8A"/>
<path d="M17.272 6.904C19.512 6.904 21.184 7.48 22.288 8.632C23.408 9.784 23.968 11.472 23.968 13.696C23.968 15.52 23.624 17.064 22.936 18.328C22.264 19.592 21.344 20.544 20.176 21.184C19.008 21.808 17.704 22.12 16.264 22.12C15.848 22.12 15.096 22.104 14.008 22.072C13.176 22.024 12.352 22 11.536 22V21.184C12.016 21.152 12.368 21.088 12.592 20.992C12.832 20.88 12.992 20.704 13.072 20.464C13.152 20.208 13.192 19.816 13.192 19.288V9.736C13.192 9.208 13.152 8.824 13.072 8.584C12.992 8.328 12.832 8.144 12.592 8.032C12.368 7.92 12.016 7.856 11.536 7.84V7C12.464 7 13.52 6.984 14.704 6.952C15.76 6.92 16.616 6.904 17.272 6.904ZM15.04 8.032V20.992H16.84C18.744 20.992 20.072 20.392 20.824 19.192C21.592 17.992 21.976 16.264 21.976 14.008C21.976 10.024 20.248 8.032 16.792 8.032H15.04Z" fill="#1E3A8A"/>
<path d="M33.784 12.712C33.4107 12.7213 33.1727 12.8753 33.07 13.174L30.536 21H29.682L27.05 13.048C27.022 12.936 26.9613 12.8567 26.868 12.81C26.7747 12.754 26.6207 12.7213 26.406 12.712V12.222C27.0313 12.2593 27.4793 12.278 27.75 12.278C28.03 12.278 28.52 12.2593 29.22 12.222V12.712C28.8653 12.7307 28.6133 12.7633 28.464 12.81C28.324 12.8567 28.254 12.964 28.254 13.132C28.254 13.2067 28.2773 13.314 28.324 13.454L30.298 19.404H30.34L32.202 13.552C32.2393 13.44 32.258 13.3327 32.258 13.23C32.258 13.0433 32.1787 12.9173 32.02 12.852C31.8707 12.7773 31.6373 12.7307 31.32 12.712V12.222C31.964 12.2593 32.3747 12.278 32.552 12.278C32.7387 12.278 33.1493 12.2593 33.784 12.222V12.712ZM38.1562 19.53C38.1562 19.8287 38.1795 20.048 38.2262 20.188C38.2728 20.3187 38.3615 20.4167 38.4922 20.482C38.6228 20.538 38.8375 20.5707 39.1362 20.58V21.014C38.9588 20.9953 38.7115 20.986 38.3942 20.986C38.1702 20.986 37.7968 21.0047 37.2742 21.042V19.824C37.1062 20.2253 36.8542 20.552 36.5182 20.804C36.1915 21.0467 35.8695 21.168 35.5522 21.168C35.0202 21.168 34.6095 21.0373 34.3202 20.776C34.0402 20.5053 33.9002 20.0947 33.9002 19.544C33.9002 18.844 34.1662 18.326 34.6982 17.99C35.2302 17.654 36.0562 17.486 37.1762 17.486V16.282C37.1762 15.834 37.1015 15.5073 36.9522 15.302C36.8122 15.0967 36.5695 14.994 36.2242 14.994C35.8882 14.994 35.6175 15.134 35.4122 15.414C35.2068 15.694 35.1042 16.0953 35.1042 16.618H34.5582V14.938C35.1275 14.6767 35.7015 14.546 36.2802 14.546C36.8868 14.546 37.3488 14.686 37.6662 14.966C37.9928 15.246 38.1562 15.708 38.1562 16.352V19.53ZM35.7482 20.384C36.0748 20.384 36.3595 20.2767 36.6022 20.062C36.8542 19.838 37.0455 19.5207 37.1762 19.11V17.948C36.3268 17.948 35.7342 18.074 35.3982 18.326C35.0715 18.5687 34.9082 18.9327 34.9082 19.418C34.9082 19.7353 34.9828 19.978 35.1322 20.146C35.2815 20.3047 35.4868 20.384 35.7482 20.384ZM45.0955 19.586C45.0955 19.8193 45.1188 19.992 45.1655 20.104C45.2121 20.216 45.3008 20.2953 45.4315 20.342C45.5715 20.3887 45.7861 20.4167 46.0755 20.426V20.874L44.4095 21.168L44.1855 21.084V19.628C43.9428 20.1227 43.6441 20.5053 43.2895 20.776C42.9348 21.0373 42.5708 21.168 42.1975 21.168C41.8241 21.168 41.5255 21.1073 41.3015 20.986C41.0775 20.8647 40.9048 20.65 40.7835 20.342C40.6715 20.0247 40.6155 19.586 40.6155 19.026V16.114C40.6155 15.8807 40.5921 15.708 40.5455 15.596C40.4988 15.484 40.4055 15.4047 40.2655 15.358C40.1348 15.3113 39.9295 15.2833 39.6495 15.274V14.84L41.3855 14.546L41.5955 14.616V19.208C41.5955 19.6187 41.6701 19.908 41.8195 20.076C41.9781 20.244 42.2021 20.328 42.4915 20.328C42.8368 20.328 43.1495 20.2113 43.4295 19.978C43.7188 19.7353 43.9475 19.404 44.1155 18.984V16.114C44.1155 15.8807 44.0921 15.708 44.0455 15.596C43.9988 15.484 43.9055 15.4047 43.7655 15.358C43.6348 15.3113 43.4248 15.2833 43.1355 15.274V14.84L44.8855 14.546L45.0955 14.616V19.586ZM48.7798 11.872V19.544C48.7798 19.8427 48.7984 20.062 48.8358 20.202C48.8824 20.3327 48.9711 20.4307 49.1018 20.496C49.2418 20.552 49.4564 20.5847 49.7458 20.594V21.042L49.3398 21.014C48.8824 20.986 48.5371 20.972 48.3038 20.972C48.0798 20.972 47.7344 20.986 47.2677 21.014L46.8198 21.042V20.594C47.1184 20.5847 47.3331 20.552 47.4638 20.496C47.5944 20.4307 47.6831 20.3327 47.7298 20.202C47.7764 20.062 47.7998 19.8427 47.7998 19.544V13.398C47.7998 13.1553 47.7764 12.978 47.7298 12.866C47.6831 12.7447 47.5898 12.6607 47.4498 12.614C47.3191 12.5673 47.1091 12.544 46.8198 12.544V12.096L48.5558 11.788L48.7798 11.872ZM54.2635 12.194C55.5702 12.194 56.5455 12.53 57.1895 13.202C57.8428 13.874 58.1695 14.8587 58.1695 16.156C58.1695 17.22 57.9688 18.1207 57.5675 18.858C57.1755 19.5953 56.6388 20.1507 55.9575 20.524C55.2762 20.888 54.5155 21.07 53.6755 21.07C53.4328 21.07 52.9942 21.0607 52.3595 21.042C51.8742 21.014 51.3935 21 50.9175 21V20.524C51.1975 20.5053 51.4028 20.468 51.5335 20.412C51.6735 20.3467 51.7668 20.244 51.8135 20.104C51.8602 19.9547 51.8835 19.726 51.8835 19.418V13.846C51.8835 13.538 51.8602 13.314 51.8135 13.174C51.7668 13.0247 51.6735 12.9173 51.5335 12.852C51.4028 12.7867 51.1975 12.7493 50.9175 12.74V12.25C51.4588 12.25 52.0748 12.2407 52.7655 12.222C53.3815 12.2033 53.8808 12.194 54.2635 12.194ZM52.9615 12.852V20.412H54.0115C55.1222 20.412 55.8968 20.062 56.3355 19.362C56.7835 18.662 57.0075 17.654 57.0075 16.338C57.0075 14.014 55.9995 12.852 53.9835 12.852H52.9615ZM64.0185 19.712C63.4865 20.6827 62.7119 21.168 61.6945 21.168C60.9945 21.168 60.4439 20.9113 60.0425 20.398C59.6412 19.8753 59.4405 19.1333 59.4405 18.172C59.4405 17.3693 59.5619 16.6973 59.8045 16.156C60.0472 15.6147 60.3692 15.2133 60.7705 14.952C61.1719 14.6813 61.6152 14.546 62.1005 14.546C62.6699 14.546 63.0899 14.6953 63.3605 14.994C63.6405 15.2833 63.8179 15.6427 63.8925 16.072C63.9672 16.492 64.0045 17.0147 64.0045 17.64H60.4765V17.92C60.4765 18.7227 60.6025 19.334 60.8545 19.754C61.1065 20.174 61.4659 20.384 61.9325 20.384C62.5859 20.384 63.1925 20.104 63.7525 19.544L64.0185 19.712ZM61.9325 14.994C61.1112 14.994 60.6352 15.7033 60.5045 17.122H62.9685C62.9499 15.7033 62.6045 14.994 61.9325 14.994ZM69.47 20.048C69.5913 20.244 69.7033 20.384 69.806 20.468C69.918 20.5427 70.0907 20.5847 70.324 20.594V21.042C69.7827 20.9953 69.344 20.972 69.008 20.972C68.6907 20.972 68.238 20.9953 67.65 21.042V20.594C68.07 20.566 68.28 20.4213 68.28 20.16C68.28 20.0013 68.21 19.8193 68.07 19.614L67.23 18.326L66.432 19.628C66.3013 19.8427 66.236 20.0247 66.236 20.174C66.236 20.426 66.446 20.566 66.866 20.594V21.042C66.306 20.9953 65.9327 20.972 65.746 20.972C65.5593 20.972 65.2 20.9953 64.668 21.042V20.594C64.8733 20.5847 65.0413 20.5333 65.172 20.44C65.3027 20.3467 65.4333 20.202 65.564 20.006L66.922 17.906L65.62 15.666C65.5173 15.4607 65.41 15.3207 65.298 15.246C65.186 15.162 65.0087 15.1153 64.766 15.106V14.672C65.438 14.7093 65.872 14.728 66.068 14.728C66.2733 14.728 66.7213 14.7093 67.412 14.672V15.106C67.0013 15.134 66.796 15.274 66.796 15.526C66.796 15.6847 66.8613 15.8713 66.992 16.086L67.72 17.304L68.434 16.072C68.574 15.8387 68.644 15.652 68.644 15.512C68.644 15.2693 68.4387 15.134 68.028 15.106V14.672L68.42 14.7C68.7933 14.7187 69.0267 14.728 69.12 14.728C69.2227 14.728 69.442 14.7187 69.778 14.7L70.156 14.672V15.106C69.9227 15.1153 69.7453 15.162 69.624 15.246C69.512 15.33 69.3953 15.4793 69.274 15.694L68.028 17.724L69.47 20.048Z" fill="#1E3A8A"/>
</svg>
