<svg width="191" height="41" viewBox="0 0 191 41" fill="none" xmlns="http://www.w3.org/2000/svg">
<path d="M11.84 32.24C8.02667 32.24 5.09333 30.96 3.04 28.4C1.01333 25.8133 2.98023e-08 22.32 2.98023e-08 17.92C2.98023e-08 13.52 1.08 10.04 3.24 7.48C5.4 4.92 8.41333 3.64 12.28 3.64C14.4133 3.64 16.5067 4.02667 18.56 4.8L17.84 7.28C16.2133 6.58666 14.2933 6.24 12.08 6.24C9.28 6.24 7.06667 7.26666 5.44 9.32C3.81333 11.3467 3 14.1467 3 17.72C3 21.2667 3.76 24.1467 5.28 26.36C6.82667 28.5467 8.97333 29.64 11.72 29.64C13.5333 29.64 15.8133 29.12 18.56 28.08L19.36 30.16C17.0667 31.5467 14.56 32.24 11.84 32.24ZM46.6794 4L38.0394 32H33.8394L25.8794 4H29.2394L36.0794 28.6L43.3994 4H46.6794ZM58.5153 40.12H55.5153V-4.76837e-07H58.5153V40.12ZM98.0759 32H95.0759V9.04L86.0759 24.64L85.0359 24.6L76.0359 9.08V32H73.0759V4H76.4359L85.5959 19.4L95.0759 4H98.0759V32ZM116.608 20.04H118.248C118.248 17.6133 117.941 16.04 117.328 15.32C116.715 14.5733 115.355 14.2 113.248 14.2C111.141 14.2 109.355 14.48 107.888 15.04L107.328 12.72C109.568 11.9733 111.888 11.6 114.288 11.6C118.981 11.6 121.328 13.9467 121.328 18.64V32H119.568L118.528 29.64C117.301 30.6533 116.235 31.3467 115.328 31.72C114.448 32.0667 113.421 32.24 112.248 32.24C110.381 32.24 108.928 31.6933 107.888 30.6C106.848 29.48 106.328 28.0133 106.328 26.2C106.328 22.0933 109.755 20.04 116.608 20.04ZM118.288 22.56H116.488C113.768 22.56 111.888 22.8267 110.848 23.36C109.835 23.8933 109.328 24.7333 109.328 25.88C109.328 27 109.621 27.92 110.208 28.64C110.795 29.36 111.555 29.72 112.488 29.72C113.448 29.72 114.355 29.5067 115.208 29.08C116.088 28.6267 117.115 27.8533 118.288 26.76V22.56ZM132.593 4H135.593V20.48L144.153 12H147.953L139.473 20.12L148.393 32H144.993L137.713 22L135.593 24.16V32H132.593V4ZM170.825 22.64H158.065C158.065 25.2 158.665 27.0133 159.865 28.08C161.091 29.1467 162.625 29.68 164.465 29.68C165.398 29.68 166.051 29.64 166.425 29.56C166.798 29.4533 167.145 29.36 167.465 29.28C167.811 29.1733 168.051 29.0933 168.185 29.04C168.851 28.8533 169.425 28.68 169.905 28.52L170.385 30.84C167.718 31.7733 165.638 32.24 164.145 32.24C161.398 32.24 159.198 31.4133 157.545 29.76C155.891 28.08 155.065 25.5733 155.065 22.24C155.065 18.88 155.838 16.2667 157.385 14.4C158.958 12.5333 160.931 11.6 163.305 11.6C165.705 11.6 167.571 12.3733 168.905 13.92C170.238 15.4667 170.905 17.56 170.905 20.2C170.905 20.92 170.878 21.7333 170.825 22.64ZM158.265 20.36H168.025C168.025 18.3867 167.678 16.8667 166.985 15.8C166.291 14.7333 165.078 14.2 163.345 14.2C161.638 14.2 160.385 14.7733 159.585 15.92C158.785 17.0667 158.345 18.5467 158.265 20.36ZM183.515 16.72V32H180.515V12H182.435L182.915 14.36C184.195 13.3467 185.262 12.64 186.115 12.24C186.968 11.8133 187.942 11.6 189.035 11.6C189.568 11.6 189.968 11.6267 190.235 11.68L190.795 11.84L190.315 14.6C189.835 14.44 189.182 14.36 188.355 14.36C186.755 14.36 185.142 15.1467 183.515 16.72Z" fill="#402E98"/>
</svg>
